<svg xmlns="http://www.w3.org/2000/svg"><defs><linearGradient id="instagram-SVGID_1_" gradientUnits="userSpaceOnUse" x1="275.517" y1="4.57" x2="275.517" y2="549.72" gradientTransform="matrix(1 0 0 -1 0 554)"> <stop offset="0"/> <stop offset="0.3"/> <stop offset="0.6"/> <stop offset="1"/> </linearGradient><linearGradient id="instagram-SVGID_2_" gradientUnits="userSpaceOnUse" x1="275.517" y1="4.57" x2="275.517" y2="549.72" gradientTransform="matrix(1 0 0 -1 0 554)"> <stop offset="0"/> <stop offset="0.3"/> <stop offset="0.6"/> <stop offset="1"/> </linearGradient><linearGradient id="instagram-SVGID_3_" gradientUnits="userSpaceOnUse" x1="418.31" y1="4.57" x2="418.31" y2="549.72" gradientTransform="matrix(1 0 0 -1 0 554)"> <stop offset="0"/> <stop offset="0.3"/> <stop offset="0.6"/> <stop offset="1"/> </linearGradient></defs><symbol viewBox="0 0 115.9 174.6" id="arrow"><title>triangle-up</title>  <path d="M106,93.6c-2.3-1.5-5.4-0.8-6.9,1.5L63,151.8V5.7c0-2.8-2.2-5-5-5c-2.8,0-5,2.2-5,5v146.1L16.9,95.2c-1.5-2.3-4.6-3-6.9-1.5
	c-2.3,1.5-3,4.6-1.5,6.9l45.3,71.1c0.9,1.4,2.5,2.3,4.2,2.3s3.3-0.9,4.2-2.3l45.3-71.1c0.5-0.8,0.8-1.8,0.8-2.7
	C108.3,96.2,107.5,94.6,106,93.6z"/> </symbol><symbol viewBox="0 0 171.3 171.3" id="checkmark"><title>checkmark</title> <g> <path d="M85.7,2.3c-46,0-83.3,37.3-83.3,83.3c0,46,37.3,83.3,83.3,83.3c46,0,83.3-37.3,83.3-83.3C169,39.6,131.7,2.3,85.7,2.3z
		 M72.1,131c-15-15-30.2-30.2-45-45c5-5.1,11.1-11.1,17.6-17.6c8.5,8.6,17.4,17.5,26.6,26.7c18.3-18.4,36.6-36.8,54.6-54.8
		c6.5,6.6,12.6,12.7,18.3,18.4C120.2,82.9,95.9,107.2,72.1,131z"/> </g> </symbol><symbol viewBox="0 0 329 52.3" id="chicago-tribune-logo"><title>chicago-tribune-logo</title> <style type="text/css"> .st0{fill:#FFFFFF;} </style> <path class="st0" d="M70.3,6.3l-3.8,3.9l-3.9-3.7l3.9-4.2L70.3,6.3 M93.3,15.7c-0.2,2.6-2.2,5.3-5,5.3c-2.6,0-4.2-1.6-5.1-3.5
	l-0.3,0.2V36l5.1,3.1l2.8-2.9l0.4,0.4l-6.7,6.9l-9.3-5.6v-0.2c1-0.3,1.4-1.3,1.4-2.8V20.8c3.9-2,8.2-4.7,10.8-6.6
	c0.5,0.8,1.7,1.9,3.2,1.9c1.2,0,2.2-0.3,2.7-0.6L93.3,15.7L93.3,15.7z M74.4,37.8l-5.6,5.8c-3.1-1.1-4.9-2.6-4.9-6.5V19.9l-1.7-1.2
	l-1.6,1.6l-0.4-0.4l5.5-5.7l5.8,3.8v0.1c-0.9,0.5-1.3,1-1.3,2.9v15.3c0,1.3,0.8,2.6,2.2,2.8l1.7-1.7L74.4,37.8L74.4,37.8z
	 M61.4,37.9l-5.5,5.6c-2.9-0.9-4.8-2.7-4.8-6.3V21.1l-3.5-2.4l-2,2.1v17.5l2,1.3l-4.6,4l-5.2-4.3v-0.1c0.9-0.2,1.4-1,1.4-3V6.3
	c0-2.2-0.4-2.8-0.8-3.6l0.3-0.1c1,0.8,1.6,1.5,1.8,3h0.1c1.4-2.3,3.2-3.9,6.5-4.3l0.1,0.2c-0.9,1.2-1.7,2.4-1.7,4.4v14.2l5.4-5.7
	c2,1.3,5.7,4,7.8,5.3v0.1c-0.8,0.3-1.3,0.9-1.3,2.8v13.2c0,1.9,0.5,2.6,2,3.4l1.6-1.6L61.4,37.9L61.4,37.9z M160.1,19.7
	c-0.9,0.4-1.4,0.9-1.4,3v14.1c-2.6,1.1-8.5,4.5-11.4,6.8c-3.2-2.1-4.8-3.3-8.1-5.4v-0.1c0.9-0.4,1.4-0.9,1.4-3.1V21
	c4-1.9,8.3-4.6,11.4-6.9c1.9,1.3,6,3.9,8.2,5.4L160.1,19.7L160.1,19.7z M152.4,39.5V21.4c-1.5-0.9-3.9-2.8-4.9-3.5l-0.6,0.4v18.2
	c0.7,0.5,3.2,2.2,4.8,3.4L152.4,39.5L152.4,39.5z M137.2,41.5c0,1.7-2.4,3.5-5,5.6c-3.4,2.8-5.2,4.1-5.2,4.1c-1.7-1-2.7-1.2-5.2-1.2
	c-3.2,0-4.9,0.3-7.2,1.2l-0.1,0c1.8-3.3,5.3-6.1,10.3-6.1c2.2,0,4.7,0.9,6.4,2c0.4-0.3,1.8-1.3,1.8-2c0-2.2-4.2-2-4.8-6.1l-4.7,4.8
	c-5.5-3.5-8.6-5.5-8.6-5.5v-0.2c1.1-0.5,1.3-1,1.3-3.7V21c4.6-2.4,8.9-4.9,11.5-6.9l8.1,5.4v0.1c-1,0.5-1.4,1-1.4,3.4v12.5
	C134.7,38.5,137.2,38.8,137.2,41.5L137.2,41.5z M128.3,38.1V21.3c-2.4-1.5-4.8-3.4-4.8-3.4l-0.7,0.4v18l4.4,3L128.3,38.1L128.3,38.1
	z M113.9,37.9l-5.5,5.6c-2.5-0.8-4.7-2.2-4.8-5.7l-6.2,5.7c-3.1-1.3-5.2-4.1-5.2-7.5c0-4.7,3.8-7.1,7.2-8.3v0
	c-3-1.5-5.4-4.2-6.1-7.5l9.6-5.9l8.6,5.8v0.1c-1,0.4-1.5,1-1.5,2.9v12.8c0,1.4,0.6,3,2.1,3.4l1.6-1.6L113.9,37.9L113.9,37.9z
	 M103.5,26.7v-5.2l-5.4-3.7l-0.7,0.4c0.2,3.1,0.7,7.1,2.7,9.2C100.9,27.1,102.7,26.8,103.5,26.7L103.5,26.7z M103.5,37.1v-9.8
	c-3.8,0.5-5.9,3.1-5.9,6.5c0,2.8,1,4.5,3.5,5.5L103.5,37.1L103.5,37.1z M37.4,2.6c-0.2,3.8-2.8,7.3-7.6,7.3c-0.6,0-1.2-0.1-1.7-0.2
	v30c3.1-0.4,5.8-1.7,8.4-3.5l0.2,0.7c-2.8,3.3-8.2,8.7-16.4,8.7C9.1,45.6,0.9,38,0.9,25c0-11.9,9.8-18.6,16.2-21l0.5,0.3
	c-6,4-9.3,8.8-9.3,17.2c0,7.4,2.7,12.7,6.7,15.8l1.4-0.9v-23c0-2.1-0.3-2.8-1.3-3.1V10c4-2,10.4-5.5,13.9-8.2
	c1.1,1.3,2.5,1.8,4.1,1.8c1.9,0,3.1-0.7,3.9-1.3L37.4,2.6L37.4,2.6z M27.4,39.9V9.5c-1.6-0.6-2.7-1.9-3.7-3.3l-0.2,0.1v26.1
	l-7.9,5.3c2.7,1.9,6.7,2.2,10.7,2.2C26.7,39.9,27.1,39.9,27.4,39.9L27.4,39.9z M307.7,38l-5.5,5.6c-3.5-1.1-4.9-3.2-4.9-6.4V21
	l-2.9-2.1l-2.6,2.7v16.9l2.1,1.3l-4.6,4l-5.1-4.3v-0.1c1.1-0.5,1.4-1.1,1.4-3.1V21.7c0-1.6-0.8-2.8-2.3-3l-1.7,1.7l-0.4-0.4l5.6-5.7
	c3.3,0.8,5.1,3,5.1,6.3l6-6.3c2,1.5,4.9,3.5,7.1,4.8v0.1c-0.9,0.4-1.2,1-1.2,2.9v13.8c0,1.9,0.6,2.7,2.1,3.3l1.6-1.6L307.7,38
	L307.7,38z M282.3,38.1l-5.4,5.6c-2.7-0.5-5-3-5-5.7l-6.4,5.7c-2.5-1.7-4.8-3.3-6.9-4.5V39c1.2-0.6,1.4-1,1.4-3.2V21.5
	c0-1.5-0.7-2.4-2-2.8l-1.5,1.6l-0.4-0.4l5.4-5.6c2.7,0.9,4.9,3,4.9,6.3v16.7l3,2l2.5-2.3V19.6l-1.8-1.3l4.4-4l5.1,4.1v0.1
	c-1,0.5-1.3,1-1.3,2.8v14.2c0,2.2,0.3,3,2.1,3.8l1.4-1.6L282.3,38.1L282.3,38.1z M229.4,6.4l-3.8,3.9l-3.9-3.7l3.9-4.1L229.4,6.4
	 M233.5,37.9l-5.6,5.8c-3.1-1.1-4.9-2.6-4.9-6.5V20l-1.7-1.2l-1.6,1.6l-0.4-0.4l5.5-5.7l5.8,3.8v0.1c-0.9,0.5-1.3,0.9-1.3,2.2v15.9
	c0,1.3,0.8,2.6,2.2,2.8l1.7-1.7L233.5,37.9L233.5,37.9z"/> <path class="st0" d="M219.9,16.1c-0.3,2.2-2,5.1-4.8,5.1c-1.8,0-3.2-1-3.9-2.2l-0.5,0.5c0,0.2,0,0.8,0,1v16l4.8,2.7l1.6-1.7l0.4,0.4
	l-5.7,5.8l-8.7-5.5V38c1-0.4,1.3-1,1.3-2.5V22.2c0-2.2-0.5-3.2-2.3-3.6l-1.7,1.7l-0.4-0.4l5.5-5.7c2.7,0.7,4.5,2.3,4.9,4.5l4.3-4.5
	c0.8,1.1,1.8,1.9,3,1.9c0.8,0,1.4-0.1,1.9-0.4L219.9,16.1L219.9,16.1z"/> <path class="st0" d="M203.4,2.4c-0.6,4.8-2.6,9.1-7.7,9.1c-0.6,0-1.5-0.1-1.9-0.1V40c3.1-0.4,6.7-1.9,8.2-3.1l0.2,0.6
	c-2.3,3.3-8.8,8.5-16.8,8.5c-10.1,0-17.9-6.6-17.9-17.4c0-9.2,7.6-15.9,12.6-17.7l0.4,0.2c-3.5,3.2-5.9,7.5-5.9,14.3
	c0,5.7,2.2,9.2,5.5,12l1.9-1V18.9c0-1.9-0.6-2.5-1.3-2.6v-0.2l8.4-4.4v21.7l-8.5,4.3c2.3,1.8,5.9,2.7,9.3,2.7c1.2,0,1.7,0,3.1-0.3
	V11.4c-6.3-0.5-13-3.2-18.1-3.2c-3.6,0-6.3,1.5-6.3,4.2c0,1.7,1.3,2.4,2.1,2.8l-0.7,0.4c-1.5-0.7-3.4-2.4-3.4-5.9
	c0-5.1,4.1-8.5,9.7-8.5c7.7,0,14.9,4.1,21.7,4.1c2.1,0,4-1.1,5-3.1L203.4,2.4L203.4,2.4z M327.4,22.6c-3.6,2.2-8,5.1-11.3,7.5v6.2
	l5.4,3l3-3.1l0.4,0.3l-6.9,7.2l-9.6-5.8v-0.1c1-0.3,1.5-0.9,1.5-3V21.1c3.9-1.7,8-4.6,11-6.9L327.4,22.6L327.4,22.6z M321.5,25.6
	c-0.9-1.3-3.8-5.6-5.1-7.5l-0.3,0.2v11L321.5,25.6L321.5,25.6z M255.4,19.8c-1.1,0.4-1.3,1.3-1.3,2.7V37c-2.6,1.1-8.5,4.3-11.5,6.7
	c-2.1-1.5-5.5-3.8-8.2-5.4v-0.1c1.2-0.5,1.4-1.2,1.4-3.5V6.6c0-2-0.4-3-0.8-3.8l0.3-0.1c0.9,0.8,1.5,1.7,1.8,3h0.1
	c1.4-2.3,3.2-3.8,6.6-4.3l0,0.3c-0.9,1.2-1.6,2.2-1.6,4.4V20l5.4-5.7c1.9,1.4,5.7,4.1,7.8,5.4L255.4,19.8L255.4,19.8z M247.7,39.6
	V21.2l-3.5-2.4l-2,2v15.5l4.8,3.5L247.7,39.6L247.7,39.6z"/> </symbol><symbol viewBox="0 0 505 505" id="close"><title>close</title> <g> <path d="M431.044,73.955C383.354,26.265,319.945,0,252.5,0S121.646,26.265,73.956,73.955C26.265,121.646,0,185.055,0,252.5
		s26.265,130.854,73.956,178.545C121.646,478.735,185.055,505,252.5,505s130.854-26.265,178.544-73.955
		C478.735,383.354,505,319.945,505,252.5S478.735,121.646,431.044,73.955z M368.908,429.031l-117.9-117.9L138.579,423.56
		l-58.134-58.133l112.43-112.429L75.968,136.091l60.123-60.123l116.907,116.907L365.427,80.446l58.134,58.133l-112.43,112.429
		l117.901,117.9L368.908,429.031z"/> </g> </symbol><symbol viewBox="0 0 14 14" id="email"><title>email</title> <g> <g> <path d="M7,9L5.268,7.484l-4.952,4.245C0.496,11.896,0.739,12,1.007,12h11.986
			c0.267,0,0.509-0.104,0.688-0.271L8.732,7.484L7,9z"/> <path d="M13.684,2.271C13.504,2.103,13.262,2,12.993,2H1.007C0.74,2,0.498,2.104,0.318,2.273L7,8
			L13.684,2.271z"/> <polygon points="0,2.878 0,11.186 4.833,7.079 		"/> <polygon points="9.167,7.079 14,11.186 14,2.875 		"/> </g> </g>                </symbol><symbol viewBox="0 0 619 619" id="facebook-circle"><title>facebook-circle</title> <style type="text/css"> .st0{fill:#FFFFFF;} </style> <circle cx="309.5" cy="309.5" r="309.5"/> <path class="st0" d="M439.7,131.3H179.3c-26.5,0-48,21.5-48,48v260.3c0,26.5,21.5,48,48,48h128.4l0.2-127.4h-33.1
	c-4.3,0-7.8-3.5-7.8-7.8l-0.2-41.1c0-4.3,3.5-7.8,7.8-7.8h33V264c0-46,28.1-71.1,69.2-71.1h33.7c4.3,0,7.8,3.5,7.8,7.8v34.6
	c0,4.3-3.5,7.8-7.8,7.8l-20.7,0c-22.3,0-26.7,10.6-26.7,26.2v34.3h49.1c4.7,0,8.3,4.1,7.8,8.7l-4.9,41.1c-0.5,3.9-3.8,6.9-7.8,6.9
	h-44l-0.2,127.4h76.4c26.5,0,48-21.5,48-48V179.3C487.7,152.8,466.2,131.3,439.7,131.3z"/> </symbol><symbol viewBox="0 0 408.788 408.788" id="facebook"><title>facebook</title> <path d="M353.701,0H55.087C24.665,0,0.002,24.662,0.002,55.085v298.616c0,30.423,24.662,55.085,55.085,55.085
	h147.275l0.251-146.078h-37.951c-4.932,0-8.935-3.988-8.954-8.92l-0.182-47.087c-0.019-4.959,3.996-8.989,8.955-8.989h37.882
	v-45.498c0-52.8,32.247-81.55,79.348-81.55h38.65c4.945,0,8.955,4.009,8.955,8.955v39.704c0,4.944-4.007,8.952-8.95,8.955
	l-23.719,0.011c-25.615,0-30.575,12.172-30.575,30.035v39.389h56.285c5.363,0,9.524,4.683,8.892,10.009l-5.581,47.087
	c-0.534,4.506-4.355,7.901-8.892,7.901h-50.453l-0.251,146.078h87.631c30.422,0,55.084-24.662,55.084-55.084V55.085
	C408.786,24.662,384.124,0,353.701,0z"/>                </symbol><symbol viewBox="0 0 112.2 112.2" id="google"><title>google</title><path d="M56.1,0a56.1,56.1,0,1,0,56.1,56.1A56.1,56.1,0,0,0,56.1,0Zm4,71.83c-5.73,7.38-16.32,9.54-24.94,6.65A23.26,23.26,0,0,1,19.77,60.2a21.45,21.45,0,0,1-.24-3.59,20,20,0,0,1,.3-4.28C21.63,42.17,31,33.64,41.46,33.52a23.09,23.09,0,0,1,16.61,5.7h0c-1.89,2.07-3.81,4.13-5.87,6.05-4.05-2.47-8.93-4.34-13.67-2.68-7.64,2.18-12.27,11.2-9.44,18.68a13,13,0,0,0,2.95,5.13,14.68,14.68,0,0,0,16.33,3.68c3.85-1.38,6.39-4.93,7.51-8.75-4.42-.09-8.84,0-13.25-.16h0q0-3.95,0-7.87c7.37,0,14.75,0,22.12,0h0C65.2,59.77,64.25,66.66,60.06,71.83ZM92.32,53.32V59.9h0l-6.6,0c0,2.21,0,4.41,0,6.62H79.09c0-2.21,0-4.41,0-6.61l-6.61,0h0V53.32h0l6.61,0c0-2.19,0-4.4,0-6.6h6.57c0,2.2,0,4.41,0,6.6l6.6,0Z"/></symbol><symbol viewBox="0 0 610.11 513.11" id="headphones"><title>headphones</title><g id="headphones-Bd1QG8"><path d="M498,513.09v-6.51c0-78.82.17-157.65-.08-236.48-.1-31.4-5.06-61.92-18.73-90.67-16.77-35.27-41.44-63.38-74.77-83.71C370.2,74.83,333,65.46,292.89,68.29,233.12,72.5,185.71,99.36,150,147.07c-21.18,28.27-32.58,60.47-36.55,95.35a246.44,246.44,0,0,0-1.26,27.45q-.15,118.25-.06,236.48v6.12a13,13,0,0,1-2.58.57c-17.16-.08-34.35.34-51.48-.42-21.31-.95-36.88-12.22-48.11-29.74C2.71,471.65-.06,459.16,0,445.8c.19-42-.19-84,.17-126,.21-25.45,11.39-45,33.71-57.88a6.23,6.23,0,0,1,1.76-.93c8.13-1.59,9.53-6.71,10-14.51C49,188.61,69.27,137.06,106.71,92.88,148.54,43.51,201.6,12.47,265.83,3.09,336.74-7.28,402,8.33,459.53,51.8c56.81,42.9,91,99.81,102.33,170.15,1.67,10.34,2.23,20.87,2.91,31.33.2,3,1.33,4.26,3.94,5.33,25.58,10.39,41.17,33,41.27,60.47q.25,65.49,0,131c-.13,29.93-22.39,56.49-51.7,62a75.2,75.2,0,0,1-13.43.95c-13.83.12-27.67.05-41.5.05Z" fill="#231f20"/><path d="M431.92,386.07q0-51.24,0-102.48c0-12.71,6.56-21.44,17.64-24,12.7-2.95,25.59,6.22,27.1,19.3a43.75,43.75,0,0,1,.22,5q0,102.22,0,204.44c0,12.19-5.81,20.47-16.23,23.55a22.23,22.23,0,0,1-28.41-18.33,58.35,58.35,0,0,1-.32-7.48Q431.9,436,431.92,386.07Z" fill="#231f20"/><path d="M133.22,385.55c0-33.82.05-67.65,0-101.47,0-8.33,2.3-15.49,9.21-20.54s14.36-6,22.2-2.59,12.2,9.54,13.34,17.95a50,50,0,0,1,.28,6.48q0,100.47-.08,201A36.46,36.46,0,0,1,176,499.48c-3.82,9.73-13.95,14.77-24.44,13-9.27-1.55-17-9.8-18.12-19.48a62.37,62.37,0,0,1-.24-7Q133.22,435.78,133.22,385.55Z" fill="#231f20"/></g></symbol><symbol viewBox="0 0 551.034 551.034" id="instagram"><title>instagram</title> <g>  <path d="M386.878,0H164.156C73.64,0,0,73.64,0,164.156v222.722
		c0,90.516,73.64,164.156,164.156,164.156h222.722c90.516,0,164.156-73.64,164.156-164.156V164.156
		C551.033,73.64,477.393,0,386.878,0z M495.6,386.878c0,60.045-48.677,108.722-108.722,108.722H164.156
		c-60.045,0-108.722-48.677-108.722-108.722V164.156c0-60.046,48.677-108.722,108.722-108.722h222.722
		c60.045,0,108.722,48.676,108.722,108.722L495.6,386.878L495.6,386.878z"/>  <path d="M275.517,133C196.933,133,133,196.933,133,275.516s63.933,142.517,142.517,142.517
		S418.034,354.1,418.034,275.516S354.101,133,275.517,133z M275.517,362.6c-48.095,0-87.083-38.988-87.083-87.083
		s38.989-87.083,87.083-87.083c48.095,0,87.083,38.988,87.083,87.083C362.6,323.611,323.611,362.6,275.517,362.6z"/>  <circle cx="418.31" cy="134.07" r="34.15"/> </g>                </symbol><symbol viewBox="0 0 505 505" id="link"><title>link</title> <g> <path d="M252.5,0C185.1,0,121.6,26.3,74,74S0,185.1,0,252.5C0,319.9,26.3,383.4,74,431s111.1,74,178.5,74
		c67.4,0,130.9-26.3,178.5-74s74-111.1,74-178.5c0-67.4-26.3-130.9-74-178.5S319.9,0,252.5,0z M392.3,236.6
		c-26.5,26.5-65.9,32.4-98.2,17.8l27.9-27.9c0.1-0.1,0.3-0.3,0.4-0.4c0.2-0.2,0.3-0.4,0.5-0.5c0.2-0.2,0.3-0.4,0.5-0.5
		c15.3,2.1,31.3-2.7,43-14.4c19.9-19.9,19.9-52.2,0-72s-52.2-19.9-72,0c-11.7,11.7-16.5,27.7-14.4,43c-0.2,0.2-0.4,0.3-0.5,0.5
		c-0.2,0.2-0.4,0.3-0.5,0.5c-0.1,0.1-0.3,0.3-0.4,0.4l-27.9,27.9c-14.6-32.3-8.7-71.7,17.8-98.2c34.2-34.2,89.8-34.2,123.9,0
		S426.5,202.4,392.3,236.6z M282.9,248.9l-0.4,0.4l-33,33l-0.4,0.4l-0.4,0.4l-26.2,26.2l-0.5,0.5l-0.4,0.4l-10,10
		c-7.4,7.4-19.4,7.4-26.8,0c-7.4-7.4-7.4-19.4,0-26.8l10-10l0.4-0.4l0.5-0.5l26.2-26.2l0.4-0.4l0.4-0.4l33-33l0.4-0.4l0.4-0.4
		l26.2-26.2l0.5-0.5l0.4-0.4l3.3-3.3c7.4-7.4,19.4-7.4,26.8,0c7.4,7.4,7.4,19.4,0,26.8l-3.3,3.3l-0.4,0.4l-0.5,0.5l-26.2,26.2
		L282.9,248.9z M236.6,392.3c-34.2,34.2-89.8,34.2-123.9,0s-34.2-89.8,0-123.9c26.5-26.5,65.9-32.4,98.2-17.8l-28.3,28.3l-0.5,0.5
		l-0.5,0.5c-15.2-2.1-31.2,2.7-42.9,14.4c-19.9,19.9-19.9,52.2,0,72s52.2,19.9,72,0c11.7-11.7,16.5-27.7,14.4-42.9l0.5-0.5l0.5-0.5
		l28.3-28.3C269,326.4,263.1,365.8,236.6,392.3z"/> </g> </symbol><symbol viewBox="0 0 600 600" id="map-marker-circle"><title>map-marker-circle</title> <g> <circle cx="300" cy="234.3" r="101.3"/> <path d="M300,0C134.3,0,0,134.3,0,300s134.3,300,300,300s300-134.3,300-300S465.7,0,300,0z M300,537.3
		c-35.3,0-176.3-201-176.3-298.4S202.6,62.7,300,62.7S476.3,141.6,476.3,239S335.3,537.3,300,537.3z"/> </g> </symbol><symbol viewBox="0 0 352.6 474.6" id="map-marker"><title>map-marker</title> <g> <path d="M176.3,0C78.9,0,0,78.9,0,176.3s141,298.4,176.3,298.4s176.3-201,176.3-298.4S273.7,0,176.3,0z M176.3,273
		C120.3,273,75,227.6,75,171.7c0-55.9,45.4-101.3,101.3-101.3s101.3,45.4,101.3,101.3C277.6,227.6,232.2,273,176.3,273z"/> </g> </symbol><symbol viewBox="0 0 426 426" id="phone-circle"><title>phone-circle</title> <g> <path d="M275.6,72.2H153.7c-5.7,0-10.3,4.6-10.3,10.3v261c0,5.7,4.6,10.3,10.3,10.3h121.9c5.7,0,10.3-4.6,10.3-10.3v-261
		C285.9,76.8,281.3,72.2,275.6,72.2z M190.4,347.1h-37.2v-28h37.2V347.1z M190.4,313h-37.2v-28h37.2V313z M190.4,279h-37.2v-28h37.2
		V279z M190.4,245h-37.2v-28h37.2V245z M233.6,347.1h-37.2v-28h37.2V347.1z M233.6,313h-37.2v-28h37.2V313z M233.6,279h-37.2v-28
		h37.2V279z M233.6,245h-37.2v-28h37.2V245z M276.8,347.1h-37.2v-28h37.2V347.1z M276.8,313h-37.2v-28h37.2V313z M276.8,279h-37.2
		v-28h37.2V279z M276.8,245h-37.2v-28h37.2V245z"/> <path d="M213,0C95.4,0,0,95.4,0,213s95.4,213,213,213s213-95.4,213-213S330.6,0,213,0z M313.9,354.2c-0.4,14.7-10.8,28.2-25.3,31.7
		c-50.9,9-100.3,9-151.2,0c-14.4-3.5-24.9-16.9-25.3-31.7c0-94.2,0-188.4,0-282.5c0.4-14.8,11-28.2,25.3-31.7c51-9,100.3-9,151.3,0
		c14.4,3.4,24.9,16.8,25.2,31.7C313.9,166,313.9,260,313.9,354.2z"/> </g> </symbol><symbol viewBox="0 0 182.5 324.7" id="phone"><title>phone</title> <g> <g> <path d="M159.6,6.1C113.5-2,69-2,22.9,6.1C9.9,9.2,0.4,21.3,0,34.7C0,119.8,0,204.9,0,290c0.4,13.3,9.9,25.4,22.9,28.6
			c46,8.1,90.6,8.1,136.6,0c13.1-3.1,22.5-15.3,22.9-28.6c0-85.1,0-170.2,0-255.3C182.1,21.3,172.6,9.2,159.6,6.1z M164.1,292.9
			c0,5.7-4.6,10.3-10.3,10.3H31.9c-5.7,0-10.3-4.6-10.3-10.3v-261c0-5.7,4.6-10.3,10.3-10.3h121.9c5.7,0,10.3,4.6,10.3,10.3V292.9z"/> </g> </g> <g> <rect x="31.2" y="164.3" width="37.2" height="28"/> <rect x="74.4" y="164.3" width="37.2" height="28"/> <rect x="117.6" y="164.3" width="37.2" height="28"/> <rect x="31.2" y="198.3" width="37.2" height="28"/> <rect x="74.4" y="198.3" width="37.2" height="28"/> <rect x="117.6" y="198.3" width="37.2" height="28"/> <rect x="31.2" y="232.4" width="37.2" height="28"/> <rect x="74.4" y="232.4" width="37.2" height="28"/> <rect x="117.6" y="232.4" width="37.2" height="28"/> <rect x="31.2" y="266.4" width="37.2" height="28"/> <rect x="74.4" y="266.4" width="37.2" height="28"/> <rect x="117.6" y="266.4" width="37.2" height="28"/> </g> </symbol><symbol viewBox="0 0 279 320.3" id="star-six"><title>star-six</title> <g> <polygon points="163.6,119.1 278.4,78.7 187.6,159.7 280,238.9 164.4,200.7 142,320.3 117.3,201.2 2.6,241.6 93.4,160.6 1,81.4 
		116.5,119.6 138.9,0 	"/> </g> </symbol><symbol viewBox="0 0 262.5 252.1" id="star"><title>star</title> <polygon points="195,161.3 207.8,252.1 127.9,207 45.5,247.2 63.7,157.4 0,91.4 91.1,81 134.1,0 172.2,83.4 262.5,99.3 "/> </symbol><symbol viewBox="0 0 165.6 174.6" id="triangle-down"><title>triangle-down</title><polygon points="165.6 0 82.8 174.6 0 0 165.6 0"/></symbol><symbol viewBox="0 0 165.6 174.6" id="triangle-up"><title>triangle-up</title><polygon points="0 174.6 82.8 0 165.6 174.6 0 174.6"/></symbol><symbol viewBox="0 0 619 619" id="twitter-circle"><title>twitter-circle</title> <style type="text/css"> .st0{fill:#FFFFFF;} </style> <circle cx="309.5" cy="309.5" r="309.5"/> <path class="st0" d="M508.1,178.6c-9.1,4-18.6,7.2-28.3,9.5c10.7-10.2,18.7-22.9,23.3-37.1l0,0c1.3-4.1-3.1-7.6-6.8-5.4l0,0
	c-13.5,8-28,14-43.2,17.9c-0.9,0.2-1.8,0.3-2.7,0.3c-2.8,0-5.5-1-7.6-2.9c-16.2-14.2-36.9-22.1-58.5-22.1c-9.3,0-18.8,1.5-28,4.3
	c-28.7,8.9-50.8,32.5-57.7,61.7c-2.6,10.9-3.3,21.9-2.1,32.6c0.1,1.2-0.4,2.1-0.8,2.5c-0.6,0.7-1.5,1.1-2.4,1.1c-0.1,0-0.2,0-0.3,0
	c-62.8-5.8-119.4-36.1-159.4-85.1l0,0c-2-2.5-6-2.2-7.6,0.6l0,0c-7.8,13.4-12,28.8-12,44.5c0,24,9.6,46.6,26.4,63
	c-7-1.7-13.8-4.3-20.2-7.8l0,0c-3.1-1.7-6.8,0.5-6.9,4l0,0c-0.4,35.6,20.4,67.3,51.6,81.6c-0.6,0-1.3,0-1.9,0c-5,0-10-0.5-14.9-1.4
	l0,0c-3.4-0.7-6.3,2.6-5.3,6l0,0c10.1,31.7,37.4,55,70,60.3c-27.1,18.2-58.6,27.8-91.4,27.8l-10.2,0c-3.2,0-5.8,2.1-6.6,5.1
	c-0.8,3,0.7,6.2,3.4,7.7c37,21.5,79.1,32.9,122,32.9c37.5,0,72.5-7.4,104.2-22.1c29-13.4,54.7-32.7,76.3-57.1
	c20.1-22.8,35.8-49.1,46.7-78.2c10.4-27.7,15.9-57.3,15.9-85.6v-1.3c0-4.5,2.1-8.8,5.6-11.7c13.6-11,25.4-24,35.2-38.6l0,0
	C516.3,181.5,512.3,176.7,508.1,178.6L508.1,178.6z"/> </symbol><symbol viewBox="0 0 410.155 410.155" id="twitter"><title>twitter</title> <path d="M403.632,74.18c-9.113,4.041-18.573,7.229-28.28,9.537c10.696-10.164,18.738-22.877,23.275-37.067
	l0,0c1.295-4.051-3.105-7.554-6.763-5.385l0,0c-13.504,8.01-28.05,14.019-43.235,17.862c-0.881,0.223-1.79,0.336-2.702,0.336
	c-2.766,0-5.455-1.027-7.57-2.891c-16.156-14.239-36.935-22.081-58.508-22.081c-9.335,0-18.76,1.455-28.014,4.325
	c-28.672,8.893-50.795,32.544-57.736,61.724c-2.604,10.945-3.309,21.9-2.097,32.56c0.139,1.225-0.44,2.08-0.797,2.481
	c-0.627,0.703-1.516,1.106-2.439,1.106c-0.103,0-0.209-0.005-0.314-0.015c-62.762-5.831-119.358-36.068-159.363-85.14l0,0
	c-2.04-2.503-5.952-2.196-7.578,0.593l0,0C13.677,65.565,9.537,80.937,9.537,96.579c0,23.972,9.631,46.563,26.36,63.032
	c-7.035-1.668-13.844-4.295-20.169-7.808l0,0c-3.06-1.7-6.825,0.485-6.868,3.985l0,0c-0.438,35.612,20.412,67.3,51.646,81.569
	c-0.629,0.015-1.258,0.022-1.888,0.022c-4.951,0-9.964-0.478-14.898-1.421l0,0c-3.446-0.658-6.341,2.611-5.271,5.952l0,0
	c10.138,31.651,37.39,54.981,70.002,60.278c-27.066,18.169-58.585,27.753-91.39,27.753l-10.227-0.006
	c-3.151,0-5.816,2.054-6.619,5.106c-0.791,3.006,0.666,6.177,3.353,7.74c36.966,21.513,79.131,32.883,121.955,32.883
	c37.485,0,72.549-7.439,104.219-22.109c29.033-13.449,54.689-32.674,76.255-57.141c20.09-22.792,35.8-49.103,46.692-78.201
	c10.383-27.737,15.871-57.333,15.871-85.589v-1.346c-0.001-4.537,2.051-8.806,5.631-11.712c13.585-11.03,25.415-24.014,35.16-38.591
	l0,0C411.924,77.126,407.866,72.302,403.632,74.18L403.632,74.18z"/>                </symbol><symbol viewBox="0 0 619 619" id="website-circle"><title>website-circle</title> <style type="text/css"> .st0{fill:#FFFFFF;} </style> <circle cx="309.5" cy="309.5" r="309.5"/> <g id="website-circle-ioDXOF_1_"> <g> <path class="st0" d="M428.8,357.2c5.6-26.7,2.6-51.3-8.8-74.8c-1.2-2.6-0.9-4.2,1.1-6.1c8.3-8.2,16.9-16.1,24.6-24.9
			c3.3-3.8,6.1-9,6.9-13.9c1.7-10.8,0.5-21.7-4.1-31.8c-1.9-4.1-4.7-8-7.8-11.4c-4.6-5.2-9.8-10-14.8-14.9
			c-14.2-13.8-31.4-15.3-49.7-11.5c-3,0.6-6,3-8.3,5.3c-27.2,27-54.3,54.1-81.3,81.2c-12.7,12.8-12.7,39.1-0.1,52
			c5.6,5.7,11.3,11.3,17,17c7.3,7.4,7.4,16,0.2,23.4c-7,7.2-14,14.2-21.2,21.2c-7.4,7.2-16,7.2-23.4,0c-6.7-6.5-13.4-13-19.7-19.9
			c-18-19.5-25.2-43-24.9-69.1c0.3-28.1,9.9-52.1,30.3-71.9c25-24.2,49.8-48.7,73.8-73.9c19.2-20.1,42.3-29.2,69.5-29.6
			c26-0.4,50.8,5,71.1,21.8c22.2,18.4,43.6,38,51.4,67.7c8.1,30.7,7.7,60.6-8.9,88.7c-2.6,4.4-5.9,8.5-9.5,12.2
			c-20.2,20.5-40.7,40.9-61.1,61.2C430.8,355.6,430.3,356,428.8,357.2z"/> <path class="st0" d="M189.9,262.5c-0.6,6.4-1.2,12.3-1.7,18.2c-1.5,19.4,2.4,37.7,10.8,55.1c1.6,3.3,1.2,5.2-1.4,7.7
			c-6.7,6.3-12.7,13.3-19.6,19.3c-12.3,10.7-13.8,24-10.3,38.6c2.1,8.6,6.2,16,12.7,22.2c6.6,6.3,13.2,12.7,19.4,19.5
			c12.6,13.6,40.2,15.5,54.8,0.1c24.4-25.8,50-50.4,75.1-75.5c13.1-13.1,16.2-28.9,8.6-45.9c-1.7-3.7-4.2-7.2-6.9-10.2
			c-5.1-5.7-10.8-10.8-16.2-16.4c-6.4-6.7-6.5-15.7-0.1-22.4c7.3-7.6,14.7-15,22.3-22.3c5.8-5.6,14.5-6.8,20-1.6
			c12.9,12.3,27.1,23.6,34.8,40.2c18,38.8,17.2,76.6-8,112.4c-2.1,3-4.8,5.5-7.4,8.1c-26.1,26.2-52.4,52.3-78.4,78.5
			c-17.7,17.9-39.4,26-64.1,27.2c-22.7,1.2-44.8-2.3-63.3-15.8c-23.3-17-45.2-36.3-57.3-63.5c-14.3-32.1-14.7-64.5,2.5-96
			c3.1-5.8,7.4-11.2,12-15.9c19.6-20,39.5-39.7,59.3-59.5C188.2,263.9,188.9,263.4,189.9,262.5z"/> </g> </g> </symbol></svg>