<?xml version="1.0" encoding="utf-8"?>
<!-- Generator: Adobe Illustrator 22.1.0, SVG Export Plug-In . SVG Version: 6.00 Build 0)  -->
<svg version="1.1" id="Layer_1" xmlns="http://www.w3.org/2000/svg" xmlns:xlink="http://www.w3.org/1999/xlink" x="0px" y="0px"
	 viewBox="0 0 115.9 174.6" style="enable-background:new 0 0 115.9 174.6;" xml:space="preserve">
<title>triangle-up</title>
<path d="M106,93.6c-2.3-1.5-5.4-0.8-6.9,1.5L63,151.8V5.7c0-2.8-2.2-5-5-5c-2.8,0-5,2.2-5,5v146.1L16.9,95.2c-1.5-2.3-4.6-3-6.9-1.5
	c-2.3,1.5-3,4.6-1.5,6.9l45.3,71.1c0.9,1.4,2.5,2.3,4.2,2.3s3.3-0.9,4.2-2.3l45.3-71.1c0.5-0.8,0.8-1.8,0.8-2.7
	C108.3,96.2,107.5,94.6,106,93.6z"/>
</svg>
