<?xml version="1.0" encoding="utf-8"?>
<!-- Generator: Adobe Illustrator 22.1.0, SVG Export Plug-In . SVG Version: 6.00 Build 0)  -->
<svg version="1.1" id="Layer_1" xmlns="http://www.w3.org/2000/svg" xmlns:xlink="http://www.w3.org/1999/xlink" x="0px" y="0px"
	 viewBox="0 0 610.1 513.1" style="enable-background:new 0 0 610.1 513.1;" xml:space="preserve">
<title>headphones</title>
<path class="st0" d="M498,513.1v-6.5c0-78.8,0.2-157.6-0.1-236.5c-0.1-31.4-5.1-61.9-18.7-90.7c-16.8-35.3-41.4-63.4-74.8-83.7
	C370.2,74.8,333,65.5,292.9,68.3c-59.8,4.2-107.2,31.1-142.9,78.8c-21.2,28.3-32.6,60.5-36.6,95.4c-0.9,9.1-1.4,18.3-1.3,27.5
	c-0.1,78.8-0.1,157.7-0.1,236.5v6.1c-0.8,0.3-1.7,0.5-2.6,0.6c-17.2-0.1-34.3,0.3-51.5-0.4c-21.3-1-36.9-12.2-48.1-29.7
	c-7.2-11.2-10-23.7-10-37.1C0,404-0.4,362,0,320c0.2-25.5,11.4-45,33.7-57.9c0.5-0.4,1.1-0.7,1.8-0.9c8.1-1.6,9.5-6.7,10-14.5
	c3.4-57.9,23.6-109.4,61.1-153.6c41.8-49.4,94.9-80.4,159.1-89.8c71-10.6,136.3,5,193.8,48.5c56.8,42.9,91,99.8,102.3,170.1
	c1.7,10.3,2.2,20.9,2.9,31.3c0.2,3,1.3,4.3,3.9,5.3c25.6,10.4,41.2,33,41.3,60.5c0.2,43.7,0.2,87.3,0,131
	c-0.1,29.9-22.4,56.5-51.7,62c-4.4,0.7-8.9,1-13.4,1c-13.8,0.1-27.7,0-41.5,0L498,513.1z"/>
<path class="st0" d="M431.9,386.1c0-34.2,0-68.3,0-102.5c0-12.7,6.6-21.4,17.6-24c12.7-3,25.6,6.2,27.1,19.3c0.2,1.7,0.2,3.3,0.2,5
	c0,68.1,0,136.3,0,204.4c0,12.2-5.8,20.5-16.2,23.5c-11.8,3.5-24.2-3.2-27.7-14.9c-0.3-1.1-0.6-2.3-0.7-3.4c-0.3-2.5-0.4-5-0.3-7.5
	C431.9,452.7,431.9,419.4,431.9,386.1z"/>
<path class="st0" d="M133.2,385.5c0-33.8,0.1-67.6,0-101.5c0-8.3,2.3-15.5,9.2-20.5s14.4-6,22.2-2.6s12.2,9.5,13.3,18
	c0.2,2.2,0.3,4.3,0.3,6.5c0,67,0,134-0.1,201c0.1,4.5-0.7,8.9-2.2,13.1c-3.8,9.7-13.9,14.8-24.4,13c-9.3-1.5-17-9.8-18.1-19.5
	c-0.2-2.3-0.3-4.7-0.2-7C133.2,452.5,133.2,419,133.2,385.5z"/>
</svg>
