<?xml version="1.0" encoding="utf-8"?>
<!-- Generator: Adobe Illustrator 22.1.0, SVG Export Plug-In . SVG Version: 6.00 Build 0)  -->
<svg version="1.1" id="Layer_1" xmlns="http://www.w3.org/2000/svg" xmlns:xlink="http://www.w3.org/1999/xlink" x="0px" y="0px"
	 viewBox="0 0 512 439.484" style="enable-background:new 0 0 512 439.484;" xml:space="preserve">
<g id="wRcgWj_1_">
	<g>
		<path d="M0,108.725c2.231-7.589,3.457-15.667,6.865-22.684c15.229-31.35,40.341-48.801,75.497-49.066
			c66.817-0.503,133.64-0.161,200.461-0.137c6.213,0.002,9.646,3.209,9.889,9.425c0.228,5.823,0.214,11.668,0.013,17.493
			c-0.221,6.405-3.646,9.58-10.168,9.857c-1.497,0.064-2.999,0.017-4.499,0.017c-65.154,0.002-130.309-0.039-195.463,0.029
			c-19.696,0.02-36.828,11.654-43.044,29.837c-1.995,5.836-2.633,12.382-2.653,18.607c-0.191,58.988-0.114,117.977-0.114,176.966
			c0,18.996-0.084,37.993,0.026,56.989c0.131,22.618,13.166,39.524,35.024,45.035c4.766,1.202,9.897,1.308,14.861,1.313
			c76.985,0.077,153.971,0.054,230.956,0.053c28.708,0,47.864-18.998,47.987-47.842c0.12-28.327,0.022-56.656,0.031-84.984
			c0.003-11.038,2.553-13.608,13.465-13.621c4.332-0.005,8.673-0.152,12.996,0.054c6.889,0.328,10.154,3.506,10.147,10.314
			c-0.033,32.991,1.06,66.049-0.709,98.952c-1.597,29.711-18.723,50.86-44.317,65.152c-12.219,6.823-25.745,8.89-39.514,8.908
			c-77.652,0.1-155.304,0.142-232.956,0.009c-38.338-0.066-69.586-22.312-80.956-57.28C2.196,377.104,1.258,371.862,0,366.725
			C0,280.725,0,194.725,0,108.725z"/>
		<path d="M512,169.725c-0.32,0.329-0.768,0.601-0.943,0.994c-6.222,14.015-20.024,16.837-31.135,6.179
			c-7.454-7.15-14.654-14.565-21.957-21.872c-9.064-9.069-18.117-18.149-27.522-27.572c-6.261,6.348-12.29,12.532-18.396,18.639
			C357.029,201.123,301.998,256.14,246.97,311.16c-7.458,7.457-10.935,7.511-18.349,0.152c-9.342-9.274-18.654-18.578-27.948-27.9
			c-6.787-6.807-6.78-10.939,0.022-17.741c59.623-59.615,119.251-119.225,178.898-178.816c1.527-1.526,3.285-2.822,5.358-4.584
			c-1.712-1.83-2.878-3.148-4.119-4.391c-15.077-15.086-30.24-30.087-45.224-45.264c-9.041-9.158-8.958-20.895,0.63-28.204
			c3.31-2.523,8.182-4.186,12.353-4.211c47.654-0.289,95.311-0.172,142.966-0.198C501.49-0.002,507.955,5.026,512,13.725
			C512,65.725,512,117.725,512,169.725z"/>
	</g>
</g>
</svg>
