<?xml version="1.0" encoding="utf-8"?>
<!-- Generator: Adobe Illustrator 22.0.1, SVG Export Plug-In . SVG Version: 6.00 Build 0)  -->
<svg version="1.1" id="Layer_1" xmlns="http://www.w3.org/2000/svg" xmlns:xlink="http://www.w3.org/1999/xlink" x="0px" y="0px"
	 viewBox="0 0 505 505" style="enable-background:new 0 0 505 505;" xml:space="preserve">
<g>
	<path d="M252.5,0C185.1,0,121.6,26.3,74,74S0,185.1,0,252.5C0,319.9,26.3,383.4,74,431s111.1,74,178.5,74
		c67.4,0,130.9-26.3,178.5-74s74-111.1,74-178.5c0-67.4-26.3-130.9-74-178.5S319.9,0,252.5,0z M392.3,236.6
		c-26.5,26.5-65.9,32.4-98.2,17.8l27.9-27.9c0.1-0.1,0.3-0.3,0.4-0.4c0.2-0.2,0.3-0.4,0.5-0.5c0.2-0.2,0.3-0.4,0.5-0.5
		c15.3,2.1,31.3-2.7,43-14.4c19.9-19.9,19.9-52.2,0-72s-52.2-19.9-72,0c-11.7,11.7-16.5,27.7-14.4,43c-0.2,0.2-0.4,0.3-0.5,0.5
		c-0.2,0.2-0.4,0.3-0.5,0.5c-0.1,0.1-0.3,0.3-0.4,0.4l-27.9,27.9c-14.6-32.3-8.7-71.7,17.8-98.2c34.2-34.2,89.8-34.2,123.9,0
		S426.5,202.4,392.3,236.6z M282.9,248.9l-0.4,0.4l-33,33l-0.4,0.4l-0.4,0.4l-26.2,26.2l-0.5,0.5l-0.4,0.4l-10,10
		c-7.4,7.4-19.4,7.4-26.8,0c-7.4-7.4-7.4-19.4,0-26.8l10-10l0.4-0.4l0.5-0.5l26.2-26.2l0.4-0.4l0.4-0.4l33-33l0.4-0.4l0.4-0.4
		l26.2-26.2l0.5-0.5l0.4-0.4l3.3-3.3c7.4-7.4,19.4-7.4,26.8,0c7.4,7.4,7.4,19.4,0,26.8l-3.3,3.3l-0.4,0.4l-0.5,0.5l-26.2,26.2
		L282.9,248.9z M236.6,392.3c-34.2,34.2-89.8,34.2-123.9,0s-34.2-89.8,0-123.9c26.5-26.5,65.9-32.4,98.2-17.8l-28.3,28.3l-0.5,0.5
		l-0.5,0.5c-15.2-2.1-31.2,2.7-42.9,14.4c-19.9,19.9-19.9,52.2,0,72s52.2,19.9,72,0c11.7-11.7,16.5-27.7,14.4-42.9l0.5-0.5l0.5-0.5
		l28.3-28.3C269,326.4,263.1,365.8,236.6,392.3z"/>
</g>
</svg>
