<?xml version="1.0" encoding="utf-8"?>
<!-- Generator: Adobe Illustrator 22.0.1, SVG Export Plug-In . SVG Version: 6.00 Build 0)  -->
<svg version="1.1" id="Layer_1" xmlns="http://www.w3.org/2000/svg" xmlns:xlink="http://www.w3.org/1999/xlink" x="0px" y="0px"
	 viewBox="0 0 426 426" style="enable-background:new 0 0 426 426;" xml:space="preserve">
<g>
	<path d="M275.6,72.2H153.7c-5.7,0-10.3,4.6-10.3,10.3v261c0,5.7,4.6,10.3,10.3,10.3h121.9c5.7,0,10.3-4.6,10.3-10.3v-261
		C285.9,76.8,281.3,72.2,275.6,72.2z M190.4,347.1h-37.2v-28h37.2V347.1z M190.4,313h-37.2v-28h37.2V313z M190.4,279h-37.2v-28h37.2
		V279z M190.4,245h-37.2v-28h37.2V245z M233.6,347.1h-37.2v-28h37.2V347.1z M233.6,313h-37.2v-28h37.2V313z M233.6,279h-37.2v-28
		h37.2V279z M233.6,245h-37.2v-28h37.2V245z M276.8,347.1h-37.2v-28h37.2V347.1z M276.8,313h-37.2v-28h37.2V313z M276.8,279h-37.2
		v-28h37.2V279z M276.8,245h-37.2v-28h37.2V245z"/>
	<path d="M213,0C95.4,0,0,95.4,0,213s95.4,213,213,213s213-95.4,213-213S330.6,0,213,0z M313.9,354.2c-0.4,14.7-10.8,28.2-25.3,31.7
		c-50.9,9-100.3,9-151.2,0c-14.4-3.5-24.9-16.9-25.3-31.7c0-94.2,0-188.4,0-282.5c0.4-14.8,11-28.2,25.3-31.7c51-9,100.3-9,151.3,0
		c14.4,3.4,24.9,16.8,25.2,31.7C313.9,166,313.9,260,313.9,354.2z"/>
</g>
</svg>
