<?xml version="1.0" encoding="utf-8"?>
<!-- Generator: Adobe Illustrator 22.0.1, SVG Export Plug-In . SVG Version: 6.00 Build 0)  -->
<svg version="1.1" id="Layer_1" xmlns="http://www.w3.org/2000/svg" xmlns:xlink="http://www.w3.org/1999/xlink" x="0px" y="0px"
	 viewBox="0 0 182.5 324.7" style="enable-background:new 0 0 182.5 324.7;" xml:space="preserve">
<g>
	<g>
		<path d="M159.6,6.1C113.5-2,69-2,22.9,6.1C9.9,9.2,0.4,21.3,0,34.7C0,119.8,0,204.9,0,290c0.4,13.3,9.9,25.4,22.9,28.6
			c46,8.1,90.6,8.1,136.6,0c13.1-3.1,22.5-15.3,22.9-28.6c0-85.1,0-170.2,0-255.3C182.1,21.3,172.6,9.2,159.6,6.1z M164.1,292.9
			c0,5.7-4.6,10.3-10.3,10.3H31.9c-5.7,0-10.3-4.6-10.3-10.3v-261c0-5.7,4.6-10.3,10.3-10.3h121.9c5.7,0,10.3,4.6,10.3,10.3V292.9z"
			/>
	</g>
</g>
<g>
	<rect x="31.2" y="164.3" width="37.2" height="28"/>
	<rect x="74.4" y="164.3" width="37.2" height="28"/>
	<rect x="117.6" y="164.3" width="37.2" height="28"/>
	<rect x="31.2" y="198.3" width="37.2" height="28"/>
	<rect x="74.4" y="198.3" width="37.2" height="28"/>
	<rect x="117.6" y="198.3" width="37.2" height="28"/>
	<rect x="31.2" y="232.4" width="37.2" height="28"/>
	<rect x="74.4" y="232.4" width="37.2" height="28"/>
	<rect x="117.6" y="232.4" width="37.2" height="28"/>
	<rect x="31.2" y="266.4" width="37.2" height="28"/>
	<rect x="74.4" y="266.4" width="37.2" height="28"/>
	<rect x="117.6" y="266.4" width="37.2" height="28"/>
</g>
</svg>
